<svg xmlns="http://www.w3.org/2000/svg" version="1.1" xmlns:xlink="http://www.w3.org/1999/xlink" width="30"
               height="30" x="0" y="0" viewBox="0 0 512 512" style="enable-background:new 0 0 512 512"
               xml:space="preserve" class="">
               <g>
                  <path
                     d="m511.999 268.421.001-24.75c-.023-42.54-35.841-86.913-73.08-108.243 39.282-22.611 76.504-70.534 72.549-114.476v-.001A22.786 22.786 0 0 0 490.806.29c-43.877-3.949-91.79 33.193-114.429 72.455C354.973 35.625 310.781.086 268.417.009l-24.75-.001c-42.349.023-86.599 35.548-108.044 72.737C112.988 33.491 65.071-3.662 21.195.289A22.788 22.788 0 0 0 .531 20.952c-3.962 44.019 33.346 91.911 72.548 114.476C35.928 156.708.078 201.015.001 243.587L0 268.337c.023 42.42 35.706 86.835 73.078 108.242C33.887 399.14-3.43 447.046.531 491.057v.001a22.786 22.786 0 0 0 20.663 20.661 70.53 70.53 0 0 0 6.334.281c42.323 0 86.611-35.477 108.095-72.736 21.406 37.122 65.597 72.659 107.96 72.736l24.75.001c42.349-.023 86.599-35.548 108.044-72.737C397.841 476.487 442.122 512 484.471 512c2.134 0 4.25-.093 6.334-.28a22.787 22.787 0 0 0 20.664-20.663c3.96-43.993-33.324-91.899-72.547-114.477 37.23-21.326 73-65.655 73.077-108.159zm-30.073-27.494c-38.965-2.247-87.977-51.281-90.221-90.221 38.964 2.247 87.976 51.281 90.221 90.221zm-346.357 73.161c-12.957-22.62-34.194-44.393-57.938-58.084 22.629-13.048 44.343-34.349 57.938-58.083 13.122 22.797 34.536 44.535 58.231 58.084-22.728 12.996-44.553 34.319-58.231 58.083zm105.354-42.756c-2.246 38.965-51.283 87.976-90.222 90.22 2.246-38.967 51.284-87.973 90.222-90.22zm-90.222-120.876c38.967 2.251 87.979 51.281 90.222 90.221-38.966-2.251-87.977-51.277-90.222-90.221zm167.498 105.548c22.726-12.994 44.553-34.319 58.232-58.084 12.957 22.619 34.193 44.392 57.938 58.084-22.63 13.048-44.343 34.349-57.938 58.083-13.089-22.74-34.476-44.5-58.232-58.083zM361.3 361.553c-38.967-2.251-87.979-51.281-90.222-90.221 38.965 2.25 87.977 51.277 90.222 90.221zm-90.222-120.876c2.246-38.965 51.283-87.976 90.222-90.22-2.247 38.967-51.285 87.973-90.222 90.22zM481.677 30.081c-2.247 38.965-51.282 87.975-90.222 90.22 2.246-38.964 51.281-87.974 90.222-90.22zM361.3 120.302c-38.966-2.25-87.979-51.279-90.222-90.22 38.968 2.25 87.977 51.279 90.222 90.22zM256 77.638c13.291 23.049 34.66 44.429 57.749 57.741-23.046 13.287-44.435 34.651-57.749 57.741-13.289-23.047-34.659-44.429-57.75-57.742 23.05-13.288 44.436-34.65 57.75-57.74zm-15.077-47.557c-2.247 38.965-51.281 87.975-90.222 90.22 2.246-38.963 51.281-87.974 90.222-90.22zm-210.6 0c38.957 2.25 87.976 51.268 90.222 90.22-38.967-2.25-87.979-51.281-90.222-90.22zm89.972 120.625c-2.251 38.965-51.279 87.978-90.222 90.221 2.251-38.968 51.281-87.976 90.222-90.221zM30.074 271.081c38.965 2.247 87.977 51.281 90.221 90.221-38.964-2.247-87.976-51.281-90.221-90.221zm.249 210.846c2.247-38.965 51.282-87.975 90.222-90.22-2.246 38.964-51.281 87.975-90.222 90.22zm120.377-90.22c38.966 2.25 87.979 51.279 90.222 90.22-38.968-2.251-87.977-51.279-90.222-90.22zM256 434.371c-13.29-23.049-34.659-44.429-57.749-57.741 23.049-13.29 44.435-34.651 57.749-57.741 13.29 23.049 34.659 44.429 57.749 57.741-23.049 13.289-44.435 34.651-57.749 57.741zm15.077 47.556c2.247-38.965 51.281-87.975 90.222-90.22-2.246 38.964-51.281 87.974-90.222 90.22zm210.6 0c-38.957-2.25-87.976-51.268-90.222-90.22 38.968 2.251 87.979 51.281 90.222 90.22zm-89.972-120.625c2.251-38.965 51.279-87.978 90.222-90.221-2.251 38.968-51.281 87.976-90.222 90.221z"
                     fill="currentColor" opacity="1" data-original="#000000"></path>
               </g>
            </svg>