<?xml version="1.0" standalone="no"?>
<!DOCTYPE svg PUBLIC "-//W3C//DTD SVG 20010904//EN"
 "http://www.w3.org/TR/2001/REC-SVG-20010904/DTD/svg10.dtd">
<svg version="1.0" xmlns="http://www.w3.org/2000/svg"
 width="1024.000000pt" height="1024.000000pt" viewBox="0 0 1024.000000 1024.000000"
 preserveAspectRatio="xMidYMid meet">

<g transform="translate(0.000000,1024.000000) scale(0.100000,-0.100000)"
fill="#000000" stroke="none">
<path d="M5042 8750 c-141 -99 -238 -216 -282 -343 -34 -95 -38 -252 -11 -395
12 -61 25 -120 28 -129 4 -10 -26 13 -67 50 -139 129 -261 182 -399 175 -146
-7 -221 -69 -221 -183 0 -135 83 -233 344 -407 193 -129 308 -220 368 -291 42
-50 98 -136 98 -150 0 -5 -39 28 -87 74 -136 128 -320 241 -463 283 -180 53
-340 16 -404 -94 -31 -53 -28 -158 7 -232 56 -115 214 -223 391 -268 95 -24
271 -36 380 -25 87 8 116 26 116 73 0 81 110 209 203 237 68 20 106 19 171 -5
87 -33 185 -154 186 -231 0 -45 20 -60 95 -69 414 -54 782 117 820 381 14 99
-33 185 -124 228 -48 22 -70 26 -146 25 -57 0 -112 -6 -150 -18 -139 -41 -334
-162 -468 -288 -42 -40 -77 -68 -77 -62 0 25 82 133 146 194 89 84 157 136
323 244 205 133 306 241 332 352 33 142 -62 234 -242 234 -130 0 -244 -54
-384 -182 -38 -35 -66 -55 -62 -45 18 47 37 141 47 226 25 221 -35 386 -196
543 -63 60 -177 148 -194 148 -4 0 -39 -22 -78 -50z m117 -875 c38 -19 77 -66
91 -111 20 -59 7 -186 -28 -287 -27 -80 -88 -197 -102 -197 -13 0 -75 117
-103 193 -34 95 -47 231 -28 290 15 45 46 84 85 108 37 23 49 23 85 4z"/>
<path d="M2595 7764 c-69 -10 -220 -37 -224 -40 -2 -1 6 -16 18 -33 52 -72 85
-202 117 -456 43 -347 155 -626 314 -786 87 -87 165 -138 328 -216 76 -36 187
-89 247 -117 l110 -53 47 -94 c26 -52 65 -118 87 -146 23 -29 35 -53 28 -53
-6 0 -49 9 -94 20 -106 25 -190 68 -333 170 -139 99 -185 123 -287 151 -137
38 -341 16 -474 -51 -95 -49 -210 -143 -337 -278 -89 -95 -137 -137 -181 -160
-32 -18 -66 -32 -75 -32 -9 0 -16 -2 -16 -5 0 -16 149 -145 230 -200 171 -114
292 -154 490 -162 278 -11 429 46 640 244 164 153 262 190 435 165 230 -34
473 -151 690 -334 76 -64 176 -168 162 -168 -2 0 -48 20 -101 45 -122 57 -204
88 -325 122 -88 25 -111 28 -266 28 -133 -1 -184 -5 -234 -19 -241 -67 -424
-228 -498 -438 -32 -88 -43 -261 -24 -361 21 -106 83 -220 165 -301 114 -114
235 -166 386 -166 192 0 350 92 423 247 29 61 32 77 32 158 0 80 -4 97 -32
157 -59 125 -162 198 -281 198 -73 0 -114 -15 -165 -59 -72 -64 -88 -183 -33
-256 39 -51 78 -68 144 -63 49 4 59 9 94 46 32 35 38 48 38 87 0 43 1 45 20
33 29 -18 70 -105 70 -147 -2 -93 -55 -170 -149 -215 -59 -28 -75 -31 -156
-30 -117 1 -184 26 -264 100 -161 149 -200 416 -88 603 74 123 238 234 397
267 172 37 464 -8 645 -98 101 -51 226 -139 309 -218 166 -158 250 -301 317
-539 16 -58 29 -109 29 -115 0 -6 -18 19 -39 56 -90 154 -222 300 -343 381
-72 47 -212 115 -258 124 -33 6 -29 0 73 -97 249 -238 428 -512 537 -823 42
-121 48 -166 11 -83 -48 110 -171 234 -286 292 -168 83 -315 61 -423 -61 -40
-46 -72 -117 -72 -162 0 -30 4 -29 53 12 110 94 287 80 464 -38 135 -89 319
-307 400 -471 15 -31 30 -56 34 -56 4 0 12 14 19 31 39 92 188 296 282 385
139 132 303 214 427 214 51 0 126 -29 168 -65 23 -19 44 -35 47 -35 14 0 5 63
-15 105 -120 255 -443 251 -662 -10 -31 -37 -70 -96 -86 -129 -17 -34 -30 -56
-30 -50 -2 28 94 284 138 373 101 200 290 447 456 596 92 82 85 91 -35 44
-202 -77 -412 -276 -524 -495 -33 -63 -32 -43 0 75 77 281 228 498 457 658
119 83 232 137 349 167 357 92 609 43 792 -155 107 -116 148 -269 116 -440
-25 -133 -138 -274 -257 -320 -84 -32 -218 -32 -288 -1 -100 46 -155 123 -155
217 0 65 17 110 54 144 l26 24 0 -34 c0 -160 226 -207 295 -62 48 98 7 213
-94 265 -111 58 -243 30 -335 -72 -76 -85 -91 -128 -91 -255 0 -106 1 -112 34
-172 80 -149 229 -233 411 -233 153 0 273 52 390 170 130 129 175 256 168 465
-4 95 -10 135 -30 192 -80 225 -293 400 -544 449 -94 18 -275 18 -374 0 -105
-19 -245 -68 -379 -131 -62 -30 -118 -55 -124 -55 -16 0 94 110 178 179 197
163 442 282 659 320 87 16 156 13 224 -7 75 -24 133 -64 230 -159 178 -174
344 -243 589 -243 202 0 369 52 550 173 69 47 213 172 213 187 0 4 -13 10 -28
13 -52 11 -150 87 -232 181 -80 92 -136 145 -234 219 -158 119 -389 166 -579
118 -97 -25 -129 -42 -311 -165 -92 -62 -179 -112 -221 -128 -71 -26 -183 -53
-191 -46 -2 2 18 34 45 70 26 36 63 100 82 142 l34 76 100 50 c55 27 151 72
214 99 178 78 264 134 371 241 76 76 104 113 142 185 94 181 143 354 183 638
30 220 44 278 90 376 19 40 35 74 35 76 0 2 -42 11 -92 21 -139 26 -347 24
-463 -4 -251 -63 -506 -249 -625 -459 -57 -99 -116 -274 -131 -388 -17 -129
-6 -289 26 -400 70 -242 30 -449 -123 -631 -47 -56 -190 -179 -198 -171 -1 1
13 34 32 73 56 117 76 209 77 364 3 208 -38 305 -152 363 -124 62 -243 8 -243
-110 0 -57 20 -102 58 -132 36 -28 112 -29 147 -1 l26 21 18 -33 c26 -47 26
-250 0 -328 -58 -174 -134 -273 -307 -403 -162 -121 -340 -297 -432 -427 -72
-101 -187 -325 -259 -504 l-44 -108 -3 791 -2 790 44 45 c26 26 49 60 55 82
13 48 14 138 2 182 -5 17 -7 32 -4 32 3 0 23 -16 44 -35 77 -69 207 -114 277
-96 42 12 85 51 101 94 55 145 -105 379 -260 381 -46 1 -49 -1 -103 -61 -73
-80 -138 -113 -223 -113 -101 0 -159 33 -224 128 -29 40 -32 42 -81 42 -167 0
-323 -228 -264 -385 48 -123 195 -121 364 7 35 27 65 48 66 48 2 0 -2 -17 -10
-37 -7 -21 -13 -65 -14 -99 0 -71 35 -152 81 -185 l29 -20 0 -797 c0 -438 -4
-792 -8 -787 -5 6 -23 51 -41 100 -49 136 -183 398 -259 505 -87 123 -296 332
-443 443 -115 87 -169 147 -232 257 -89 157 -113 373 -51 467 l14 22 36 -24
c44 -30 69 -31 111 -5 68 41 93 147 50 211 -84 127 -270 68 -337 -107 -29 -75
-38 -240 -20 -352 13 -80 62 -232 86 -267 24 -34 15 -37 -23 -9 -64 47 -143
126 -189 191 -127 176 -159 365 -98 578 26 92 28 114 28 260 -1 179 -12 249
-67 395 -19 49 -49 114 -68 145 -129 215 -369 392 -614 455 -74 19 -276 33
-340 24z m225 -299 c71 -36 182 -144 245 -240 56 -84 135 -242 136 -273 0 -14
2 -13 9 3 4 12 11 70 14 130 4 61 9 132 13 159 5 46 6 48 20 30 7 -10 23 -50
35 -88 19 -63 20 -81 13 -210 -15 -257 -13 -289 27 -407 20 -58 57 -148 81
-200 25 -52 45 -95 44 -95 -4 -3 -189 85 -261 124 -97 52 -217 146 -194 150
25 5 167 -54 226 -93 30 -19 55 -35 57 -35 1 0 -14 39 -35 88 -21 48 -44 106
-51 130 -11 38 -23 50 -100 103 -116 79 -216 164 -257 219 -33 43 -34 45 -13
48 23 4 151 -61 248 -125 40 -27 60 -35 56 -25 -20 55 -115 258 -146 315 -21
37 -70 109 -110 159 -90 115 -120 158 -112 158 3 0 28 -11 55 -25z m4644 -2
c-9 -16 -52 -73 -94 -128 -41 -55 -92 -127 -112 -160 -39 -64 -152 -315 -145
-322 3 -2 33 15 68 39 84 56 205 118 230 118 18 0 19 -2 5 -29 -23 -43 -156
-162 -260 -233 -85 -57 -95 -67 -111 -113 -10 -27 -35 -89 -56 -137 l-37 -86
56 36 c59 37 206 102 232 101 8 0 -12 -25 -45 -55 -46 -42 -99 -75 -222 -136
-89 -44 -167 -78 -173 -76 -6 2 7 38 31 88 22 47 57 132 77 190 40 118 44 173
28 395 -6 87 -5 137 4 180 13 65 48 155 60 155 4 0 10 -60 14 -132 4 -73 9
-150 13 -170 5 -37 6 -36 68 90 92 184 204 317 327 387 55 32 64 31 42 -2z
m-3963 -550 c19 -79 17 -203 -5 -288 -23 -86 -45 -145 -56 -145 -4 0 -13 23
-20 50 -9 39 -10 70 -1 133 18 126 54 307 61 307 4 0 13 -26 21 -57z m3292
-78 c35 -176 42 -260 27 -314 -14 -54 -23 -46 -55 46 -37 112 -51 218 -36 293
13 67 29 115 35 109 3 -2 16 -62 29 -134z m-3888 -909 c79 -21 152 -58 258
-130 55 -36 104 -66 110 -66 7 0 -22 -17 -63 -38 -82 -41 -162 -99 -252 -184
-32 -30 -58 -50 -58 -45 0 26 52 100 114 164 l72 73 -99 0 c-115 0 -110 2
-292 -149 -60 -50 -115 -91 -122 -91 -31 0 55 140 124 200 l36 32 -59 -7 c-76
-9 -212 -39 -294 -64 -35 -11 -66 -18 -68 -16 -2 2 11 17 30 34 46 42 151 96
223 115 64 16 256 35 365 36 l65 1 -50 23 c-28 13 -108 43 -178 67 -70 24
-127 47 -127 52 0 12 213 7 265 -7z m4701 5 c-3 -5 -45 -23 -94 -40 -48 -17
-125 -46 -172 -64 l-85 -32 60 -6 c33 -4 101 -7 150 -8 187 -3 341 -53 436
-141 24 -23 36 -39 25 -35 -121 38 -259 69 -360 81 l-58 7 44 -42 c52 -47 90
-100 113 -153 24 -59 1 -49 -121 54 -172 144 -180 148 -293 148 l-96 0 43 -36
c46 -39 125 -143 142 -189 9 -23 -1 -17 -58 37 -86 81 -182 150 -257 184 l-57
26 40 23 c23 13 61 39 86 58 58 44 176 102 246 121 61 16 275 22 266 7z"/>
<path d="M3645 7698 c-31 -18 -44 -40 -45 -76 0 -84 117 -115 155 -41 22 42
18 67 -14 100 -31 30 -63 36 -96 17z"/>
<path d="M6505 7685 c-52 -51 -16 -145 54 -145 46 0 85 39 85 85 0 74 -88 112
-139 60z"/>
<path d="M5067 6986 c-72 -26 -107 -77 -109 -154 -3 -125 117 -205 228 -152
73 36 108 114 85 190 -28 95 -119 146 -204 116z"/>
<path d="M2335 6405 c-52 -51 -14 -139 60 -139 29 0 43 7 61 28 28 31 30 56 9
95 -25 49 -90 57 -130 16z"/>
<path d="M7785 6405 c-51 -50 -15 -136 57 -138 44 -1 74 22 83 63 18 80 -82
134 -140 75z"/>
<path d="M4260 6008 c-42 -45 -12 -118 50 -118 38 0 70 32 70 70 0 63 -77 94
-120 48z"/>
<path d="M5880 6010 c-11 -11 -20 -33 -20 -50 0 -17 9 -39 20 -50 11 -11 33
-20 50 -20 17 0 39 9 50 20 11 11 20 33 20 50 0 17 -9 39 -20 50 -11 11 -33
20 -50 20 -17 0 -39 -9 -50 -20z"/>
<path d="M4486 5834 c-24 -24 -20 -80 6 -98 32 -23 55 -20 84 10 43 42 15 104
-47 104 -15 0 -35 -7 -43 -16z"/>
<path d="M5656 5828 c-23 -33 -19 -64 10 -87 33 -26 58 -27 84 -1 25 25 26 72
2 93 -27 25 -78 22 -96 -5z"/>
<path d="M4696 5654 c-22 -21 -20 -67 2 -87 40 -36 102 -9 102 45 0 49 -69 78
-104 42z"/>
<path d="M5457 5652 c-37 -41 -11 -102 42 -102 52 0 82 68 45 104 -21 22 -67
20 -87 -2z"/>
<path d="M4855 5415 c-30 -29 -32 -58 -5 -85 39 -39 110 -11 110 44 0 25 -41
66 -67 66 -8 0 -25 -11 -38 -25z"/>
<path d="M5323 5430 c-29 -12 -45 -44 -37 -75 17 -68 124 -55 124 16 0 30 -9
43 -37 58 -25 13 -21 12 -50 1z"/>
<path d="M2678 4913 c-55 -65 4 -155 81 -124 76 32 54 141 -29 141 -23 0 -43
-7 -52 -17z"/>
<path d="M7460 4908 c-11 -12 -20 -35 -20 -50 0 -36 40 -78 75 -78 36 0 75 42
75 80 0 64 -85 96 -130 48z"/>
</g>
</svg>
